<?xml version="1.0" encoding="UTF-8"?>
<!DOCTYPE svg PUBLIC "-//W3C//DTD SVG 1.1//EN" "http://www.w3.org/Graphics/SVG/1.1/DTD/svg11.dtd">
<svg version="1.1" xmlns="http://www.w3.org/2000/svg" xmlns:xlink="http://www.w3.org/1999/xlink" x="0" y="0" width="284" height="57" viewBox="0, 0, 284, 57">
  <g id="Layer_1">
    <path d="M89.551,31.106 L81.287,42.042 L81.287,31.106 L76.69,31.106 L76.69,56.56 L81.287,56.56 L81.287,44.743 L81.35,44.743 L89.589,56.56 L95.592,56.56 L85.779,43.105 L95.2,31.106 L89.551,31.106" fill="#000000"/>
    <path d="M98.071,38.767 C99.776,37.89 102.071,37.341 103.94,37.341 C109.093,37.341 111.227,39.714 111.227,45.255 L111.227,47.661 C111.227,49.553 111.261,50.978 111.294,52.37 C111.324,53.788 111.395,55.101 111.492,56.556 L107.623,56.556 C107.455,55.579 107.455,54.333 107.425,53.751 L107.358,53.751 C106.336,55.833 104.138,56.997 102.138,56.997 C99.153,56.997 96.232,54.993 96.232,51.419 C96.232,48.613 97.448,46.967 99.12,46.053 C100.791,45.147 102.955,44.964 104.795,44.964 L107.224,44.964 C107.224,41.938 106.015,40.912 103.418,40.912 C101.549,40.912 99.679,41.718 98.202,42.96 L98.071,38.767 z M103.22,53.422 C104.571,53.422 105.619,52.769 106.306,51.747 C107.03,50.687 107.224,49.337 107.224,47.882 L105.321,47.882 C103.354,47.882 100.429,48.243 100.429,51.124 C100.429,52.736 101.646,53.422 103.22,53.422" fill="#000000"/>
    <path d="M115.07,37.781 L119.234,37.781 L119.234,40.333 L119.301,40.333 C120.681,38.18 122.551,37.341 124.845,37.341 C128.849,37.341 130.587,40.479 130.587,44.71 L130.587,56.56 L126.196,56.56 L126.196,46.531 C126.196,44.232 126.162,41.135 123.338,41.135 C120.148,41.135 119.465,44.963 119.465,47.37 L119.465,56.56 L115.07,56.56 L115.07,37.781" fill="#000000"/>
    <path d="M136.064,41.353 L132.818,41.353 L132.818,37.786 L136.064,37.786 L136.064,34.022 L140.467,32.458 L140.467,37.786 L144.373,37.786 L144.373,41.353 L140.467,41.353 L140.467,50.103 C140.467,51.711 140.863,53.203 142.534,53.203 C143.321,53.203 144.071,53.02 144.534,52.696 L144.665,56.557 C143.75,56.852 142.728,56.998 141.418,56.998 C137.971,56.998 136.064,54.625 136.064,50.905 L136.064,41.353" fill="#000000"/>
    <path d="M154.646,37.345 C159.661,37.345 163.504,41.094 163.504,47.299 C163.504,52.694 160.25,57 154.646,57 C149.061,57 145.815,52.694 145.815,47.299 C145.815,41.094 149.654,37.345 154.646,37.345 M154.646,53.206 C158.027,53.206 158.915,49.847 158.915,46.713 C158.915,43.833 157.534,41.135 154.646,41.135 C151.792,41.135 150.412,43.9 150.412,46.713 C150.412,49.814 151.3,53.206 154.646,53.206" fill="#000000"/>
    <path d="M166.048,37.781 L170.212,37.781 L170.212,40.333 L170.283,40.333 C171.66,38.18 173.525,37.341 175.824,37.341 C179.827,37.341 181.57,40.479 181.57,44.71 L181.57,56.56 L177.167,56.56 L177.167,46.531 C177.167,44.232 177.13,41.135 174.32,41.135 C171.126,41.135 170.444,44.963 170.444,47.37 L170.444,56.56 L166.048,56.56 L166.048,37.781" fill="#000000"/>
    <path d="M186.356,38.767 C188.061,37.89 190.359,37.341 192.232,37.341 C197.385,37.341 199.511,39.714 199.511,45.255 L199.511,47.661 C199.511,49.553 199.549,50.978 199.582,52.37 C199.616,53.788 199.687,55.101 199.78,56.556 L195.907,56.556 C195.747,55.579 195.747,54.333 195.709,53.751 L195.65,53.751 C194.624,55.833 192.43,56.997 190.419,56.997 C187.438,56.997 184.52,54.993 184.52,51.419 C184.52,48.613 185.732,46.967 187.408,46.053 C189.083,45.147 191.247,44.964 193.079,44.964 L195.515,44.964 C195.515,41.938 194.299,40.912 191.702,40.912 C189.833,40.912 187.964,41.718 186.486,42.96 L186.356,38.767 z M191.512,53.422 C192.848,53.422 193.904,52.769 194.594,51.747 C195.321,50.687 195.515,49.337 195.515,47.882 L193.605,47.882 C191.639,47.882 188.721,48.243 188.721,51.124 C188.721,52.736 189.934,53.422 191.512,53.422" fill="#000000"/>
    <path d="M203.461,29.207 L207.856,29.207 L207.856,56.556 L203.461,56.556 z" fill="#000000"/>
    <path d="M211.988,29.213 L216.383,29.213 L216.383,40.186 L216.454,40.186 C217.663,38.399 219.211,37.346 221.506,37.346 C226.692,37.346 228.591,41.936 228.591,47.115 C228.591,52.26 226.692,56.998 221.506,56.998 C219.629,56.998 217.603,56.271 216.323,54.26 L216.256,54.26 L216.256,56.558 L211.988,56.558 L211.988,29.213 z M220.293,53.204 C223.174,53.204 223.995,49.7 223.995,47.115 C223.995,44.6 223.211,41.134 220.361,41.134 C217.536,41.134 216.417,44.488 216.417,47.115 C216.417,49.775 217.372,53.204 220.293,53.204" fill="#000000"/>
    <path d="M231.87,38.767 C233.578,37.89 235.873,37.341 237.746,37.341 C242.899,37.341 245.033,39.714 245.033,45.255 L245.033,47.661 C245.033,49.553 245.07,50.978 245.096,52.37 C245.13,53.788 245.201,55.101 245.298,56.556 L241.421,56.556 C241.261,55.579 241.261,54.333 241.223,53.751 L241.164,53.751 C240.141,55.833 237.944,56.997 235.933,56.997 C232.952,56.997 230.034,54.993 230.034,51.419 C230.034,48.613 231.246,46.967 232.925,46.053 C234.597,45.147 236.757,44.964 238.593,44.964 L241.029,44.964 C241.029,41.938 239.813,40.912 237.216,40.912 C235.347,40.912 233.478,41.718 232.004,42.96 L231.87,38.767 z M237.026,53.422 C238.369,53.422 239.421,52.769 240.112,51.747 C240.835,50.687 241.029,49.337 241.029,47.882 L239.119,47.882 C237.157,47.882 234.235,48.243 234.235,51.124 C234.235,52.736 235.448,53.422 237.026,53.422" fill="#000000"/>
    <path d="M248.475,37.781 L252.647,37.781 L252.647,40.333 L252.71,40.333 C254.087,38.18 255.956,37.341 258.258,37.341 C262.262,37.341 263.997,40.479 263.997,44.71 L263.997,56.56 L259.605,56.56 L259.605,46.531 C259.605,44.232 259.568,41.135 256.74,41.135 C253.564,41.135 252.878,44.963 252.878,47.37 L252.878,56.56 L248.475,56.56 L248.475,37.781" fill="#000000"/>
    <path d="M267.77,29.212 L267.77,56.557 L272.169,56.557 L272.169,47.442 L272.24,47.442 L277.882,56.557 L283.46,56.557 L276.37,46.163 L282.669,37.779 L277.486,37.779 L272.24,45.293 L272.169,45.293 L272.169,29.212 L267.77,29.212" fill="#000000"/>
    <path d="M76.549,0.642 L80.206,0.642 L80.206,12.597 C80.206,16.126 81.198,18.444 83.989,18.444 C86.784,18.444 87.776,16.126 87.776,12.597 L87.776,0.642 L91.433,0.642 L91.433,13.877 C91.433,19.421 88.664,21.704 83.989,21.704 C79.318,21.704 76.549,19.421 76.549,13.877 L76.549,0.642" fill="#000000"/>
    <path d="M95.657,6.073 L98.765,6.073 L98.765,9.546 L98.817,9.546 C98.974,8.121 100.407,5.718 102.5,5.718 C102.836,5.718 103.205,5.718 103.567,5.838 L103.567,9.841 C103.257,9.632 102.627,9.513 102,9.513 C99.157,9.513 99.157,13.55 99.157,15.747 L99.157,21.352 L95.657,21.352 L95.657,6.073" fill="#000000"/>
    <path d="M106.608,6.073 L109.925,6.073 L109.925,8.151 L109.977,8.151 C111.074,6.401 112.562,5.718 114.391,5.718 C117.577,5.718 118.958,8.267 118.958,11.71 L118.958,21.352 L115.461,21.352 L115.461,13.188 C115.461,11.322 115.439,8.804 113.193,8.804 C110.656,8.804 110.107,11.919 110.107,13.878 L110.107,21.352 L106.608,21.352 L106.608,6.073" fill="#000000"/>
    <path d="M134.28,20.49 C133.001,21.292 131.538,21.71 129.658,21.71 C125.229,21.71 122.639,18.803 122.639,13.789 C122.639,9.371 124.699,5.714 128.878,5.714 C133.866,5.714 135.269,9.602 135.269,14.941 L125.982,14.941 C126.139,17.404 127.654,18.803 129.818,18.803 C131.512,18.803 132.975,18.087 134.28,17.258 L134.28,20.49 z M131.93,12.214 C131.825,10.289 131.046,8.621 129.087,8.621 C127.132,8.621 126.139,10.169 125.982,12.214 L131.93,12.214" fill="#000000"/>
    <path d="M138.762,6.073 L141.87,6.073 L141.87,9.546 L141.923,9.546 C142.079,8.121 143.512,5.718 145.609,5.718 C145.941,5.718 146.307,5.718 146.672,5.838 L146.672,9.841 C146.355,9.632 145.732,9.513 145.109,9.513 C142.255,9.513 142.255,13.55 142.255,15.747 L142.255,21.352 L138.762,21.352 L138.762,6.073" fill="#000000"/>
    <path d="M-0,56.556 L56.131,56.556 L56.131,0.421 L-0,0.421 z M2.16,2.578 L53.981,2.578 L53.981,54.396 L2.16,54.396 z" fill="#000000"/>
    <path d="M51.037,5.2 L25.135,5.2 L10.797,28.49 L25.135,51.768 L51.037,51.768 L36.702,28.49 L51.037,5.2" fill="#000000"/>
  </g>
</svg>
